<?xml version="1.0" standalone="no"?>
<!DOCTYPE svg PUBLIC "-//W3C//DTD SVG 20010904//EN"
 "http://www.w3.org/TR/2001/REC-SVG-20010904/DTD/svg10.dtd">
<svg version="1.0" xmlns="http://www.w3.org/2000/svg"
 width="2500.000000pt" height="2500.000000pt" viewBox="0 0 2500.000000 2500.000000"
 preserveAspectRatio="xMidYMid meet">

<g transform="translate(0.000000,2500.000000) scale(0.100000,-0.100000)"
fill="#FEAA0A" stroke="none">
<path d="M12095 24554 c-324 -16 -505 -27 -650 -40 -2498 -220 -4832 -1195
-6750 -2820 -469 -398 -991 -920 -1389 -1389 -889 -1050 -1583 -2220 -2074
-3500 -796 -2075 -998 -4382 -576 -6584 391 -2039 1298 -3930 2650 -5526 398
-469 920 -991 1389 -1389 1919 -1626 4264 -2605 6755 -2820 388 -34 558 -40
1050 -40 492 0 662 6 1050 40 2491 215 4836 1194 6755 2820 469 398 991 920
1389 1389 1625 1918 2601 4254 2820 6750 32 368 41 582 41 1055 0 473 -9 687
-41 1055 -219 2495 -1195 4832 -2820 6750 -398 469 -920 991 -1389 1389 -1378
1168 -2972 2002 -4710 2465 -760 202 -1541 327 -2390 381 -159 11 -976 21
-1110 14z m930 -214 c825 -39 1600 -151 2355 -341 4562 -1143 8036 -4902 8809
-9534 62 -368 105 -738 138 -1175 25 -335 25 -1245 0 -1580 -56 -751 -156
-1392 -317 -2047 -762 -3087 -2740 -5746 -5485 -7370 -2331 -1379 -5044 -1910
-7760 -1518 -2117 306 -4153 1212 -5811 2586 -2412 2001 -3929 4831 -4244
7922 -46 456 -54 639 -54 1217 0 578 8 761 54 1217 364 3567 2341 6789 5365
8743 1757 1135 3762 1777 5865 1879 245 12 845 12 1085 1z"/>
<path d="M12489 24184 c-10 -12 -14 -44 -14 -104 0 -99 15 -134 44 -105 12 12
16 37 16 105 0 68 -4 93 -16 105 -14 15 -17 15 -30 -1z"/>
<path d="M11269 24119 c-14 -27 -7 -152 11 -191 15 -31 35 -36 44 -12 17 46
-3 192 -29 214 -10 9 -16 6 -26 -11z"/>
<path d="M13700 24103 c-15 -34 -25 -141 -16 -177 16 -64 55 -9 63 91 9 102
-17 149 -47 86z"/>
<path d="M10060 23882 c0 -96 46 -199 71 -161 26 38 -20 219 -55 219 -13 0
-16 -12 -16 -58z"/>
<path d="M14898 23893 c-27 -60 -32 -178 -8 -178 26 0 54 74 58 153 4 62 2 72
-12 72 -11 0 -25 -18 -38 -47z"/>
<path d="M8880 23585 c0 -86 66 -213 91 -175 25 39 -43 220 -83 220 -4 0 -8
-20 -8 -45z"/>
<path d="M16097 23612 c-40 -44 -77 -172 -58 -202 8 -12 13 -12 30 4 41 37 80
193 52 210 -4 3 -16 -2 -24 -12z"/>
<path d="M11450 23420 l0 -100 1080 0 1080 0 0 100 0 100 -1080 0 -1080 0 0
-100z"/>
<path d="M11550 23283 c0 -4 66 -327 146 -717 80 -391 145 -722 146 -736 0
-14 -70 -364 -156 -779 -86 -415 -156 -758 -156 -762 0 -5 60 -9 134 -9 l133
0 112 568 c62 312 116 575 119 585 4 9 57 -238 120 -560 62 -317 115 -580 118
-585 3 -4 73 -8 155 -8 138 0 150 1 145 18 -2 9 -75 357 -161 773 l-155 756
145 714 c80 393 148 722 151 732 5 16 -6 17 -130 17 -75 0 -136 -3 -136 -7 -3
-46 -219 -1074 -223 -1063 -6 15 -207 1048 -207 1063 0 4 -67 7 -150 7 -82 0
-150 -3 -150 -7z"/>
<path d="M12710 21785 l0 -1506 143 3 142 3 0 1500 0 1500 -142 3 -143 3 0
-1506z"/>
<path d="M13200 21785 l0 -1505 145 0 145 0 0 1505 0 1505 -145 0 -145 0 0
-1505z"/>
<path d="M7740 23155 c0 -60 68 -185 100 -185 28 0 -1 116 -46 183 -31 48 -54
49 -54 2z"/>
<path d="M17221 23153 c-50 -61 -81 -183 -47 -183 30 0 95 121 96 177 0 46
-14 48 -49 6z"/>
<path d="M6653 22624 c-14 -37 49 -157 99 -188 44 -27 33 48 -18 126 -43 64
-71 87 -81 62z"/>
<path d="M18300 22593 c-18 -20 -41 -55 -51 -77 -19 -43 -25 -96 -10 -96 22 0
62 46 90 102 52 102 34 144 -29 71z"/>
<path d="M6963 22022 l-702 -396 41 -76 c22 -41 46 -80 52 -86 8 -9 191 90
713 384 l702 396 -41 76 c-22 41 -46 80 -52 86 -8 9 -192 -90 -713 -384z"/>
<path d="M7610 22110 c-63 -37 -115 -74 -115 -82 0 -14 1459 -2554 1481 -2577
11 -12 30 -4 131 53 65 38 120 70 122 72 4 4 -1492 2604 -1499 2603 -3 0 -57
-31 -120 -69z"/>
<path d="M17682 22045 l-51 -85 22 -14 c12 -8 144 -87 292 -176 149 -89 273
-164 276 -166 4 -2 29 34 57 81 l51 85 -22 14 c-12 8 -143 87 -292 176 -148
89 -273 164 -276 166 -4 2 -29 -34 -57 -81z"/>
<path d="M5620 21953 c0 -45 107 -183 140 -183 19 0 10 45 -20 96 -45 79 -120
133 -120 87z"/>
<path d="M19311 21914 c-43 -45 -84 -121 -75 -136 23 -37 120 68 148 160 13
39 -27 26 -73 -24z"/>
<path d="M7228 21888 c-60 -34 -108 -67 -108 -73 0 -6 78 -242 174 -525 96
-283 174 -516 172 -517 -1 -1 -164 184 -361 412 -198 228 -363 415 -368 415
-4 0 -64 -32 -132 -72 l-124 -72 63 -70 c34 -39 256 -290 494 -558 l431 -488
246 -746 c158 -480 250 -744 258 -742 32 8 217 122 217 133 0 7 -83 259 -185
560 -102 301 -184 549 -182 551 2 2 178 -196 390 -441 l388 -444 122 71 c67
38 125 73 130 77 4 4 -226 270 -512 592 l-520 584 -236 708 c-130 389 -240
707 -243 707 -4 0 -55 -28 -114 -62z"/>
<path d="M17756 21778 c-100 -160 -1465 -2543 -1459 -2548 4 -4 60 -37 123
-74 l114 -66 17 28 c51 81 1470 2545 1467 2547 -11 11 -231 135 -238 135 -5 0
-16 -10 -24 -22z"/>
<path d="M4670 21187 c0 -43 113 -167 152 -167 24 0 23 17 -3 60 -49 81 -149
153 -149 107z"/>
<path d="M20274 21168 c-76 -60 -132 -158 -91 -158 34 0 136 106 151 158 10
30 -21 30 -60 0z"/>
<path d="M3810 20322 c0 -45 114 -151 163 -152 9 0 17 6 17 13 0 34 -106 136
-157 151 -18 6 -23 3 -23 -12z"/>
<path d="M21129 20301 c-75 -47 -139 -141 -96 -141 34 0 129 76 153 122 29 56
11 63 -57 19z"/>
<path d="M11400 20140 l0 -100 1080 0 1080 0 0 100 0 100 -1080 0 -1080 0 0
-100z"/>
<path d="M8640 19170 c-377 -220 -689 -401 -693 -402 -5 -2 15 -43 43 -91 50
-84 53 -88 73 -74 12 7 324 188 692 402 369 214 671 389 673 390 3 2 -98 175
-101 174 -1 0 -310 -180 -687 -399z"/>
<path d="M3040 19371 c0 -11 17 -37 38 -57 38 -38 129 -87 144 -78 37 23 -68
120 -159 148 -19 6 -23 3 -23 -13z"/>
<path d="M21884 19351 c-49 -29 -114 -92 -114 -111 0 -15 38 -12 78 7 46 22
122 94 122 116 0 25 -28 21 -86 -12z"/>
<path d="M12180 19363 c-2050 -96 -3947 -1105 -5184 -2756 -689 -921 -1133
-1993 -1295 -3133 -53 -367 -65 -558 -65 -979 0 -421 12 -612 65 -979 339
-2376 1901 -4406 4117 -5350 665 -283 1358 -455 2112 -523 274 -25 878 -24
1150 0 697 64 1326 210 1941 453 2051 808 3598 2558 4144 4689 89 348 157 746
192 1135 24 272 24 876 0 1150 -78 869 -294 1657 -662 2418 -988 2042 -2938
3478 -5170 3806 -431 63 -927 89 -1345 69z m50 -278 l0 -75 -57 0 c-77 0 -370
-26 -513 -45 -702 -95 -1354 -289 -1959 -581 -107 -52 -195 -93 -197 -92 -10
11 -64 111 -64 118 0 17 346 178 604 282 632 253 1355 415 2036 457 74 4 138
9 143 10 4 0 7 -33 7 -74z m874 50 c807 -73 1613 -298 2326 -649 85 -42 157
-79 161 -83 4 -5 -8 -34 -27 -65 l-35 -56 -202 98 c-714 348 -1532 565 -2339
622 l-178 12 0 68 0 68 61 0 c34 0 139 -7 233 -15z m-284 -165 c1185 -59 2286
-419 3270 -1069 1151 -760 2042 -1889 2518 -3191 285 -782 422 -1661 384
-2477 -18 -386 -51 -675 -118 -1010 -197 -1000 -644 -1966 -1280 -2765 -307
-386 -721 -796 -1099 -1089 -1503 -1165 -3414 -1613 -5280 -1238 -989 199
-1946 645 -2737 1275 -386 308 -795 720 -1089 1099 -1097 1415 -1561 3196
-1293 4965 262 1734 1216 3280 2660 4313 497 355 1079 652 1679 855 756 257
1584 372 2385 332z m-3850 -917 c30 -53 31 -57 14 -66 -43 -24 -248 -167 -369
-257 -572 -425 -1066 -937 -1472 -1523 -62 -89 -118 -170 -125 -180 -13 -18
-16 -17 -71 14 -31 18 -57 37 -57 42 0 16 152 238 276 404 451 601 1010 1132
1627 1547 71 47 132 84 137 81 4 -3 22 -30 40 -62z m7505 -203 c602 -446 1153
-1023 1565 -1640 l99 -148 -54 -31 c-30 -17 -58 -31 -62 -31 -5 0 -26 28 -47
63 -21 34 -86 128 -144 209 -452 636 -1024 1195 -1672 1633 -63 43 -116 81
-118 86 -2 5 11 33 29 63 l33 54 120 -81 c67 -44 180 -124 251 -177z m-9819
-2312 c30 -18 54 -35 54 -39 0 -3 -42 -93 -94 -200 -348 -720 -563 -1533 -618
-2337 l-12 -182 -70 0 -69 0 6 143 c28 599 189 1343 425 1957 104 272 297 690
319 690 3 0 29 -15 59 -32z m11876 -193 c371 -783 588 -1649 631 -2507 l3 -68
-66 0 -66 0 -12 188 c-52 796 -270 1624 -617 2339 l-94 193 57 33 57 34 16
-26 c8 -14 50 -98 91 -186z m-12534 -3327 c55 -805 270 -1617 618 -2337 52
-107 94 -197 94 -201 0 -5 -77 -53 -112 -68 -15 -7 -228 457 -320 698 -235
613 -396 1352 -425 1952 l-6 138 69 0 70 0 12 -182z m13158 38 c-30 -602 -190
-1335 -424 -1947 -79 -205 -269 -626 -310 -687 -7 -11 -20 -7 -61 18 -28 17
-51 35 -51 39 0 5 42 96 94 202 351 725 578 1594 622 2387 l7 122 65 0 65 0
-7 -134z m-12082 -3185 c466 -700 1109 -1345 1799 -1804 64 -43 117 -82 117
-86 0 -12 -50 -100 -60 -106 -18 -11 -415 271 -645 460 -318 260 -637 577
-918 912 -168 200 -488 646 -474 660 10 9 101 62 108 62 4 1 36 -43 73 -98z
m11040 38 c10 -9 -102 -180 -249 -378 -455 -612 -1023 -1155 -1649 -1575
l-129 -87 -32 57 -32 57 126 85 c700 470 1315 1086 1785 1786 l79 116 46 -26
c25 -15 50 -30 55 -35z m-8413 -2313 c723 -351 1610 -581 2392 -622 l127 -7 0
-66 0 -66 -62 3 c-35 1 -144 9 -243 18 -804 68 -1578 282 -2327 643 -82 39
-148 76 -148 81 0 9 59 110 64 110 2 0 91 -42 197 -94z m5849 42 c37 -65 44
-56 -140 -145 -644 -309 -1302 -508 -1995 -603 -185 -25 -457 -50 -547 -50
l-68 0 0 63 0 64 128 7 c282 14 681 71 1003 142 472 104 989 283 1395 484 98
49 182 89 186 89 4 1 21 -23 38 -51z"/>
<path d="M12403 12782 c-266 -95 -268 -463 -4 -563 109 -41 250 -5 326 83 162
190 41 478 -207 494 -45 3 -78 -1 -115 -14z"/>
<path d="M16012 19255 l-51 -85 22 -14 c12 -8 144 -87 292 -176 149 -89 273
-164 276 -166 4 -2 29 34 57 81 l51 85 -22 14 c-12 8 -143 87 -292 176 -148
89 -273 164 -276 166 -4 2 -29 -34 -57 -81z"/>
<path d="M3034 18012 c-245 -435 -328 -590 -320 -598 6 -7 45 -30 86 -52 l75
-41 330 586 c182 322 331 588 332 592 2 3 -37 27 -85 53 l-87 47 -331 -587z"/>
<path d="M21668 18472 c-48 -26 -87 -50 -85 -53 1 -4 150 -272 331 -597 l330
-592 75 41 c42 23 81 46 88 51 8 6 -84 180 -319 601 -181 325 -330 593 -331
594 -1 1 -41 -19 -89 -45z"/>
<path d="M2370 18346 c0 -19 65 -75 114 -97 43 -19 96 -25 96 -10 0 22 -46 62
-102 90 -66 33 -108 40 -108 17z"/>
<path d="M22544 18331 c-49 -22 -114 -78 -114 -97 0 -21 40 -17 96 11 55 27
117 82 108 96 -8 14 -46 10 -90 -10z"/>
<path d="M3445 18228 c-26 -46 -56 -97 -66 -114 l-19 -31 414 -364 c228 -200
413 -365 412 -367 -2 -1 -231 76 -510 173 -279 96 -513 175 -521 175 -12 0
-140 -208 -147 -240 -2 -7 268 -103 699 -248 l702 -237 582 -520 c320 -286
584 -521 588 -522 7 -3 131 209 131 224 0 6 -198 184 -440 397 -242 213 -440
389 -440 391 0 4 132 -41 839 -284 146 -50 269 -91 275 -91 6 0 28 30 48 68
21 37 53 95 73 129 l35 61 -746 249 -746 248 -554 493 c-304 270 -556 492
-558 492 -2 0 -25 -37 -51 -82z"/>
<path d="M20380 17414 c-701 -404 -1279 -739 -1283 -743 -10 -10 126 -247 140
-244 14 3 2545 1461 2557 1473 8 8 -122 250 -134 249 -3 0 -579 -331 -1280
-735z"/>
<path d="M20640 16999 c-696 -402 -1275 -735 -1287 -742 -22 -12 -22 -13 48
-135 40 -68 77 -121 83 -119 17 7 2550 1467 2558 1475 5 5 -116 230 -133 246
-2 2 -573 -324 -1269 -725z"/>
<path d="M1815 17261 c-8 -14 64 -69 114 -86 90 -31 134 -10 72 34 -69 50
-170 77 -186 52z"/>
<path d="M23065 17236 c-51 -24 -95 -59 -95 -76 0 -15 52 -12 101 5 58 21 119
62 119 80 0 23 -66 18 -125 -9z"/>
<path d="M5904 16362 c-245 -435 -328 -590 -320 -598 6 -7 45 -30 86 -52 l75
-41 331 587 c244 433 328 590 320 598 -6 7 -45 30 -86 52 l-75 41 -331 -587z"/>
<path d="M18825 16841 c-44 -26 -80 -49 -80 -52 0 -5 652 -1166 660 -1177 5
-6 168 94 167 103 -2 14 -656 1175 -662 1174 -3 0 -41 -22 -85 -48z"/>
<path d="M1376 16121 c-21 -33 174 -108 214 -82 12 8 12 13 -4 30 -37 41 -193
80 -210 52z"/>
<path d="M23484 16099 c-63 -24 -96 -55 -74 -70 39 -25 220 43 220 83 0 15
-94 7 -146 -13z"/>
<path d="M1060 14936 c0 -27 83 -58 159 -60 53 -1 66 2 66 14 0 26 -74 54
-152 58 -63 4 -73 2 -73 -12z"/>
<path d="M23845 14939 c-140 -18 -186 -87 -50 -74 62 5 152 42 147 60 -4 16
-43 21 -97 14z"/>
<path d="M883 13744 c-22 -10 -14 -30 15 -44 33 -15 140 -25 176 -16 34 8 33
29 -1 46 -29 13 -169 24 -190 14z"/>
<path d="M23945 13725 c-22 -8 -41 -15 -42 -15 -11 0 0 -29 13 -34 44 -17 180
1 212 27 41 33 -103 51 -183 22z"/>
<path d="M1530 12585 l0 -805 100 0 100 0 0 805 0 805 -100 0 -100 0 0 -805z"/>
<path d="M4800 12585 l0 -805 100 0 100 0 0 805 0 805 -100 0 -100 0 0 -805z"/>
<path d="M3973 13150 l-761 -157 -719 148 c-395 82 -721 149 -725 149 -5 0 -8
-60 -8 -133 l0 -133 88 -17 c317 -61 994 -202 982 -205 -8 -2 -251 -49 -540
-105 l-525 -102 -3 -148 c-2 -118 0 -147 11 -147 7 0 335 65 727 145 l713 145
746 -155 c410 -86 756 -159 769 -162 22 -5 22 -5 22 130 l0 135 -47 11 c-27 5
-288 58 -582 117 -339 69 -525 110 -510 114 13 4 275 56 582 115 l557 109 0
153 c0 84 -3 152 -7 152 -5 -1 -351 -72 -770 -159z"/>
<path d="M20050 12425 l0 -805 100 0 100 0 0 805 0 805 -100 0 -100 0 0 -805z"/>
<path d="M23330 12395 l0 -805 100 0 100 0 0 805 0 805 -100 0 -100 0 0 -805z"/>
<path d="M20318 13085 c-5 -5 -8 -71 -8 -147 l0 -138 418 0 c229 0 900 -3
1490 -7 l1072 -6 0 146 0 147 -1093 0 c-602 0 -1269 3 -1483 6 -214 4 -392 3
-396 -1z"/>
<path d="M20318 12595 c-5 -5 -8 -71 -8 -147 l0 -138 808 0 c444 0 1114 -3
1490 -7 l682 -6 0 146 0 147 -712 0 c-392 0 -1059 3 -1483 6 -423 4 -773 3
-777 -1z"/>
<path d="M843 12534 c-34 -8 -46 -29 -27 -45 24 -20 185 -19 208 0 15 13 15
16 2 29 -15 15 -138 26 -183 16z"/>
<path d="M24003 12524 c-34 -8 -46 -29 -27 -45 24 -20 185 -19 208 0 15 13 15
16 2 29 -15 15 -138 26 -183 16z"/>
<path d="M1760 11998 l0 -145 767 -6 c421 -4 1094 -7 1495 -7 l728 0 0 145 0
145 -857 0 c-472 0 -1145 3 -1495 7 l-638 6 0 -145z"/>
<path d="M20317 12103 c-4 -3 -7 -69 -7 -145 l0 -138 1188 0 c654 0 1324 -3
1490 -7 l302 -6 0 145 0 145 -1067 6 c-1351 9 -1898 9 -1906 0z"/>
<path d="M920 11318 c-96 -27 -60 -63 54 -56 75 6 126 23 126 44 0 6 -7 15
-16 18 -23 9 -124 6 -164 -6z"/>
<path d="M23913 11314 c-22 -10 -14 -30 15 -44 33 -15 140 -25 176 -16 34 8
33 29 -1 46 -29 13 -169 24 -190 14z"/>
<path d="M1148 10126 c-60 -16 -104 -44 -90 -58 15 -15 108 -11 163 7 124 41
59 87 -73 51z"/>
<path d="M23716 10121 c-20 -32 73 -71 166 -71 73 0 79 22 13 51 -55 24 -169
37 -179 20z"/>
<path d="M5182 9958 l-83 -49 20 -32 c10 -18 304 -520 651 -1117 348 -597 634
-1086 635 -1088 1 -1 41 20 89 48 l86 51 -22 39 c-13 21 -306 524 -653 1119
-346 594 -632 1080 -635 1080 -3 -1 -42 -23 -88 -51z"/>
<path d="M3905 8959 c-660 -467 -1211 -857 -1224 -867 l-24 -18 98 -169 c54
-94 104 -176 110 -183 10 -11 261 100 1370 607 747 342 1361 623 1363 626 6 5
-121 225 -130 225 -4 0 -460 -210 -1015 -466 -1208 -559 -1153 -534 -1153
-529 0 2 439 310 975 686 536 375 975 685 975 689 0 8 -128 232 -138 241 -4 4
-547 -376 -1207 -842z"/>
<path d="M19427 9472 c-28 -43 -808 -1324 -813 -1333 -2 -3 35 -29 82 -57 l84
-52 23 38 c26 41 808 1324 813 1333 1 3 -35 29 -82 57 l-84 52 -23 -38z"/>
<path d="M19566 9241 c-74 -117 -107 -174 -104 -182 2 -4 426 -324 943 -709
517 -386 945 -706 950 -711 6 -6 -468 228 -1052 520 -585 292 -1066 531 -1070
531 -8 -1 -156 -241 -151 -245 9 -8 2681 -1325 2684 -1323 1 2 50 82 109 178
72 116 104 178 99 187 -9 12 -2372 1793 -2380 1793 -2 0 -15 -18 -28 -39z"/>
<path d="M1507 8969 c-62 -15 -137 -59 -137 -81 0 -4 20 -8 45 -8 85 0 213 66
175 90 -18 11 -32 11 -83 -1z"/>
<path d="M23410 8961 c-12 -8 -12 -13 4 -30 37 -41 193 -80 210 -52 21 33
-174 108 -214 82z"/>
<path d="M4380 8104 c-701 -404 -1281 -738 -1289 -743 -11 -7 1 -34 55 -130
38 -66 73 -121 77 -121 8 0 2565 1467 2581 1481 9 8 -123 241 -139 245 -6 2
-584 -328 -1285 -732z"/>
<path d="M4618 7674 l-1296 -746 70 -121 c39 -67 72 -123 73 -125 3 -3 2576
1475 2586 1486 6 6 -25 63 -129 239 -5 9 -402 -215 -1304 -733z"/>
<path d="M18940 8219 c-62 -102 -71 -122 -59 -134 19 -18 2520 -1557 2524
-1553 13 14 147 240 144 242 -3 3 -1789 1104 -2410 1487 l-127 78 -72 -120z"/>
<path d="M2419 8170 c-46 -26 -83 -52 -82 -57 1 -6 1279 -2219 1288 -2231 1
-1 41 20 89 49 l87 51 -20 31 c-10 18 -292 505 -626 1082 -334 578 -617 1067
-629 1087 l-22 37 -85 -49z"/>
<path d="M4865 7250 c-704 -406 -1284 -740 -1289 -742 -14 -6 129 -243 146
-242 14 1 2553 1457 2572 1475 11 9 -124 249 -139 248 -5 -1 -586 -333 -1290
-739z"/>
<path d="M1918 7831 c-99 -39 -141 -91 -73 -91 60 0 185 68 185 100 0 16 -61
11 -112 -9z"/>
<path d="M22970 7826 c0 -30 121 -95 177 -96 46 0 48 14 6 49 -61 50 -183 81
-183 47z"/>
<path d="M22132 7677 c-5 -7 -181 -304 -392 -662 -210 -357 -391 -664 -401
-681 l-19 -31 86 -52 c48 -28 88 -50 89 -49 1 2 176 300 389 663 214 363 397
674 407 691 l19 31 -84 51 c-62 37 -87 47 -94 39z"/>
<path d="M2474 6755 c-55 -27 -117 -82 -108 -96 15 -26 107 8 167 61 68 60 33
81 -59 35z"/>
<path d="M22420 6761 c0 -22 46 -62 102 -90 102 -52 144 -34 71 29 -20 18 -55
41 -77 51 -43 19 -96 25 -96 10z"/>
<path d="M7812 6478 c-36 -61 -46 -86 -38 -94 12 -13 1584 -934 1598 -937 5
-1 31 35 58 80 35 59 45 84 37 91 -7 5 -356 211 -777 457 -421 246 -779 456
-797 466 l-32 20 -49 -83z"/>
<path d="M7721 6313 c-107 -232 -1201 -2695 -1201 -2702 0 -9 308 -190 351
-206 13 -5 198 255 864 1217 466 673 849 1228 851 1233 3 8 -169 113 -216 133
-4 2 -310 -438 -680 -978 -371 -539 -675 -979 -676 -977 -2 2 215 486 481
1077 267 591 485 1079 485 1086 0 11 -222 144 -240 144 -4 0 -12 -12 -19 -27z"/>
<path d="M16170 5930 c-316 -187 -579 -341 -583 -343 -5 -1 15 -42 43 -90 50
-84 53 -88 73 -74 12 7 274 161 582 342 308 181 561 329 563 330 3 2 -98 175
-101 175 -1 -1 -261 -154 -577 -340z"/>
<path d="M16615 5929 c-55 -32 -102 -64 -103 -69 -2 -6 201 -452 452 -993 560
-1210 550 -1186 531 -1162 -9 11 -318 451 -687 978 -369 526 -676 957 -681
957 -23 0 -238 -133 -235 -145 5 -20 1712 -2434 1722 -2434 14 -1 365 203 363
211 -13 44 -1245 2717 -1252 2717 -5 0 -55 -27 -110 -60z"/>
<path d="M7975 4503 c-401 -713 -731 -1299 -732 -1302 -3 -6 231 -141 244
-141 9 0 1453 2562 1460 2589 2 11 -11 24 -44 41 -26 14 -82 45 -123 67 l-75
42 -730 -1296z"/>
<path d="M3150 5752 c-45 -22 -120 -94 -120 -115 0 -25 28 -21 86 12 49 29
114 92 114 111 0 15 -41 11 -80 -8z"/>
<path d="M21776 5763 c-28 -29 71 -119 162 -147 17 -6 22 -3 22 11 -1 23 -25
52 -71 86 -42 31 -104 59 -113 50z"/>
<path d="M8402 4260 c-403 -715 -732 -1302 -732 -1304 0 -6 236 -136 246 -136
7 1 1452 2559 1462 2589 3 9 -38 34 -189 119 l-55 31 -732 -1299z"/>
<path d="M11620 4900 l0 -100 805 0 805 0 0 100 0 100 -805 0 -805 0 0 -100z"/>
<path d="M3909 4812 c-67 -43 -125 -120 -104 -140 22 -23 175 107 175 149 0
26 -19 24 -71 -9z"/>
<path d="M21010 4816 c0 -16 40 -68 80 -103 30 -27 89 -57 97 -49 20 20 -57
118 -119 153 -31 17 -58 16 -58 -1z"/>
<path d="M11741 4718 c0 -18 62 -690 137 -1493 l137 -1460 212 -3 213 -2 4 22
c5 22 276 2930 276 2956 0 9 -33 12 -130 12 -126 0 -130 -1 -134 -22 -3 -13
-51 -548 -108 -1190 -56 -642 -104 -1165 -106 -1164 -3 3 -212 2334 -212 2363
0 10 -30 13 -145 13 l-145 0 1 -32z"/>
<path d="M12850 3255 l0 -1496 143 3 142 3 3 1493 2 1492 -145 0 -145 0 0
-1495z"/>
<path d="M4768 3963 c-61 -52 -120 -135 -104 -150 13 -13 57 10 96 51 48 50
69 82 70 109 0 25 -24 21 -62 -10z"/>
<path d="M20160 3967 c0 -39 94 -147 141 -162 33 -11 35 3 9 51 -40 77 -150
157 -150 111z"/>
<path d="M6271 3594 c-29 -48 -50 -88 -49 -89 33 -21 1604 -937 1610 -938 5
-1 31 35 58 80 35 59 45 84 37 91 -7 5 -356 211 -777 457 -421 246 -779 456
-797 466 l-31 20 -51 -87z"/>
<path d="M17820 3150 c-162 -93 -299 -171 -303 -172 -5 -2 15 -43 43 -91 50
-84 53 -88 73 -74 12 7 148 85 302 172 154 87 281 159 283 160 3 2 -98 175
-101 174 -1 0 -135 -76 -297 -169z"/>
<path d="M5694 3193 c-35 -37 -64 -85 -78 -130 -12 -38 25 -28 71 20 41 41 86
124 77 139 -11 17 -34 7 -70 -29z"/>
<path d="M19230 3208 c0 -32 53 -120 90 -152 63 -53 78 -23 31 60 -29 49 -92
114 -111 114 -6 0 -10 -10 -10 -22z"/>
<path d="M6727 2560 c-30 -24 -87 -133 -87 -167 0 -51 58 -7 104 81 25 48 35
106 17 106 -4 0 -20 -9 -34 -20z"/>
<path d="M18220 2547 c0 -52 97 -196 121 -181 26 15 -8 107 -61 167 -37 42
-60 48 -60 14z"/>
<path d="M7791 2001 c-50 -69 -77 -170 -52 -186 14 -8 69 64 86 114 31 90 10
134 -34 72z"/>
<path d="M17150 2001 c0 -62 64 -191 95 -191 37 0 -2 144 -54 198 -29 30 -41
28 -41 -7z"/>
<path d="M11680 1640 l0 -100 805 0 805 0 0 100 0 100 -805 0 -805 0 0 -100z"/>
<path d="M8926 1581 c-40 -44 -73 -189 -47 -205 30 -19 102 154 86 205 -8 24
-17 24 -39 0z"/>
<path d="M16025 1581 c-15 -50 50 -211 87 -211 15 0 8 89 -11 141 -19 50 -46
89 -62 89 -4 0 -10 -8 -14 -19z"/>
<path d="M10092 1277 c-39 -46 -59 -217 -26 -217 25 0 57 87 58 159 1 65 -10
85 -32 58z"/>
<path d="M14864 1265 c-15 -61 28 -205 62 -205 14 0 16 10 12 73 -5 106 -57
199 -74 132z"/>
<path d="M11270 1073 c-15 -34 -25 -141 -16 -177 16 -64 55 -9 63 91 9 102
-17 149 -47 86z"/>
<path d="M13676 1084 c-10 -25 -7 -111 5 -159 26 -102 65 -68 57 49 -6 75 -23
126 -44 126 -6 0 -15 -7 -18 -16z"/>
<path d="M12479 1024 c-10 -12 -14 -44 -14 -104 0 -99 15 -134 44 -105 12 12
16 37 16 105 0 68 -4 93 -16 105 -14 15 -17 15 -30 -1z"/>
</g>
</svg>
