<?xml version="1.0" encoding="utf-8"?>
<!-- Generator: Adobe Illustrator 25.2.1, SVG Export Plug-In . SVG Version: 6.00 Build 0)  -->
<svg version="1.1" xmlns="http://www.w3.org/2000/svg" xmlns:xlink="http://www.w3.org/1999/xlink" x="0px" y="0px"
	 viewBox="0 0 640 160" style="enable-background:new 0 0 640 160;" xml:space="preserve">
<style type="text/css">
	.st0{display:none;}
	.st1{opacity:0.5;fill:#fff9d6;}
	.st2{fill:#fff9d6;}
	.st3{opacity:0.65;fill:#fff9d6;}
</style>
<g id="Layer_1">
	<g id="Layer_1_1_" class="st0">
	</g>
	<path class="st1" d="M640,24v136L0.3,160H0V24h0.3c0,0,37.5,0.3,44.6,13.9c1.5,2.9,2.4,6.1,5.9,9.3c3.2,3,13.6,1.4,21.4,4.1
		C91.1,57.9,96.3,64.6,114,54c6.3-3.8,8.3-9.5,15.8-6.6c7.1,2.7,1.9,12.6,0.2,18.4c-1.6,5.3-9.4,15.9,3.1,23.6
		c11.8,7.3,14.7,16.6,20.3,20.9c14.2,10.9,43.9-0.3,59-10.1c18.6-12.1,27.9-4.9,45.1-9.1c12.7-3.1,26.5-14.7,39.5-15.1
		c11.9-0.4,11.4,15.9,21.5,16.5c3.7,0.2,9.5,1.8,13.1,3c7.5,2.5,6.1,9.6,12.8,9.4c11.7-0.3,20.6-14.9,30.9-10.4
		c7.6,3.4,19.7,1.2,23.4,4.5c7.6,6.6,11.9,6.5,22.4,6.7c7.9,0.1,14.6,7.8,19.1,7.1c10-1.5,18.2-19.9,29.7-25.8
		c7.9-4,23.2,0.4,31.8-1.8c6.7-1.8,19.5-10.3,25.6-13.5c10.9-5.8,12.8-7.6,30.3-8.8c7.5-0.5,20.3,4,27.7,2.5
		c14.9-3.1,23.5-22.1,26.1-25.6C622.8,24.1,640,24,640,24z"/>
	<path class="st2" d="M-12.8,76.7"/>
</g>
<g id="Layer_2">
	<path class="st3" d="M0,52.9c0,0,10.2-4.5,23.5-4.4c9,0,18.1,10.3,25.7,16.7c16.4,13.8,17,24.5,26,25.4C86,91.6,92,76.8,99.7,79.5
		c6.1,2.1,3.8,11.8,12.5,24.2c5.6,8,12.3,12.1,17.4,15.3c10.1,6.2,16.2,6.5,35.8,11.6c30.4,7.9,28.7,10.7,37,10.1
		c16-1.2,16.8-11.1,39.7-21.4c12.4-5.5,35.2-15.7,55-7.3c11.9,5,13.8,13,26.9,14.7c10.4,1.3,11.8-3.3,24.8-2.4
		c14.8,1,19.4,7.6,26.9,4.3c7.9-3.5,5.8-11.9,12.2-15c11.1-5.2,23.2,17,50.1,24.5c16.3,4.5,39.5,4,47.4-7.6
		c6.8-10-0.6-23.8,6.1-27.8c4.7-2.8,9.3,3.2,19.6,4.9c13.9,2.3,18.9-6.5,42.5-14.4c19.7-6.6,38.2-7.8,40.7-7.9
		c20-1.2,23.7-6.5,28.4-14.1c4.7-7.5,17.2-16.5,17.2-16.5V160L0,160V52.9z"/>
</g>
<g id="Layer_3">
	<path class="st2" d="M0,103c0,0,9.6-7.8,19.3-7.3c13.9,0.7,17.2,32.5,35.5,34.9c11.4,1.5,22.3-5.3,32.8-2.7
		c12.2,3,5.4,12.6,21.2,23.1c10.5,7,18.7,1.5,44.6,1.5c29.4,0,28.9,6.6,53.8,7c35.5,0.5,38.1-13.3,70.4-12.2
		c25,0.9,25.6,12.2,56.9,12.2c26,0,31.7-6.7,64.2-7.3c44.4-0.7,45,7.6,88.4,7.6c31.1,0,43-7.3,46.8-9.4c19.4-10.9,16.8-19.5,33.3-26
		c23.2-9.1,37.6,4.1,55.6-8.6c8.6-6.1,17.2-12.8,17.2-12.8v57L0,160V103z"/>
</g>
</svg>
