<svg xmlns="http://www.w3.org/2000/svg" viewBox="0 0 144 792"><defs><style>.cls-1{fill:#bf9b30;}.cls-2{fill:none;}</style></defs><g id="Layer_2" data-name="Layer 2"><g id="Layer_1-2" data-name="Layer 1"><path class="cls-1" d="M87.52,363.71l-2.4-53a27,27,0,0,0,12.86-23,26.67,26.67,0,0,0-.42-4.76L117,270l-11.1-11.1L90,243,76.7,169.87l-5-24.25L54,243,27,270l17.65,11.76a26.62,26.62,0,0,0-.67,6,27,27,0,0,0,12.86,23l-2.43,53.5a36,36,0,1,0,33.11-.51Zm-36.79-76c0-.62,0-1.24.09-1.84a20.11,20.11,0,0,1,5.75-12.38,20.61,20.61,0,0,1,2-1.81,20.23,20.23,0,0,1,24.73,0,19.52,19.52,0,0,1,3.14,3,20.06,20.06,0,0,1,4.74,12.48c0,.18,0,.35,0,.53a20.25,20.25,0,1,1-40.5,0ZM71.46,422.93a27,27,0,1,1,27-27A27,27,0,0,1,71.46,422.93Z"/><rect class="cls-2" width="144" height="792"/></g></g></svg>