<?xml version="1.0" standalone="no"?>
<!DOCTYPE svg PUBLIC "-//W3C//DTD SVG 20010904//EN"
 "http://www.w3.org/TR/2001/REC-SVG-20010904/DTD/svg10.dtd">
<svg version="1.0" xmlns="http://www.w3.org/2000/svg"
 width="1080.000000pt" height="1080.000000pt" viewBox="0 0 1080.000000 1080.000000"
 preserveAspectRatio="xMidYMid meet">

<g transform="translate(0.000000,1080.000000) scale(0.100000,-0.100000)"
fill="#bf9b30 " stroke="none">
<path d="M7708 10008 c-74 -128 -195 -335 -268 -460 -72 -126 -136 -228 -141
-228 -5 0 -40 15 -77 34 -272 136 -761 290 -1114 350 -424 73 -911 80 -1323
20 -733 -106 -1436 -399 -2026 -845 -341 -257 -679 -607 -930 -960 -548 -773
-840 -1774 -790 -2705 6 -110 13 -217 16 -239 15 -123 47 -330 55 -350 5 -13
7 -25 4 -28 -2 -2 0 -15 5 -29 5 -14 12 -40 15 -59 22 -132 111 -437 186 -634
44 -115 147 -355 160 -370 6 -7 -109 -78 -328 -205 -513 -296 -603 -350 -600
-363 6 -25 272 -477 280 -477 9 0 226 124 681 387 136 78 252 143 256 143 5 0
21 -19 36 -42 105 -159 285 -378 460 -557 741 -762 1701 -1215 2768 -1307 l77
-6 0 -539 0 -539 280 0 280 0 0 539 0 539 73 7 c560 51 1041 183 1535 421 451
217 819 480 1182 843 323 324 547 625 759 1019 34 62 61 117 61 122 0 10 -467
280 -484 280 -6 0 -29 -35 -50 -78 -99 -202 -282 -481 -455 -692 -102 -126
-341 -367 -466 -471 -577 -481 -1203 -757 -1965 -866 -181 -25 -769 -25 -950
0 -730 105 -1338 363 -1890 804 -163 130 -444 408 -563 558 -92 114 -192 254
-186 259 12 8 669 386 673 386 2 0 42 -48 87 -108 101 -132 348 -380 489 -492
413 -328 904 -541 1430 -621 175 -26 510 -36 686 -20 517 48 971 205 1399 486
323 213 642 533 859 864 650 991 645 2301 -13 3282 -61 90 -148 209 -194 264
-113 134 -349 363 -470 454 -91 70 -96 75 -84 95 15 24 152 258 183 314 20 35
195 333 200 341 5 6 230 -166 335 -256 147 -127 367 -356 487 -506 151 -189
315 -443 416 -645 34 -68 38 -72 59 -61 12 7 92 54 177 104 85 50 185 108 223
129 37 21 67 43 67 50 0 20 -164 308 -254 446 -304 465 -728 899 -1168 1199
-27 17 -48 36 -48 40 0 5 118 212 261 461 144 250 263 461 265 469 3 12 -58
52 -223 146 -125 72 -236 131 -248 133 -18 3 -41 -31 -157 -230z m-1908 -843
c262 -29 500 -80 749 -160 139 -45 346 -126 425 -168 l44 -22 -364 -630 c-200
-346 -395 -684 -433 -750 -38 -66 -111 -192 -162 -280 -50 -88 -212 -369 -359
-625 -146 -256 -324 -565 -394 -687 l-128 -222 -537 -310 c-802 -463 -2604
-1500 -2654 -1528 -10 -6 -60 105 -130 287 -347 903 -326 1937 58 2834 238
558 620 1063 1092 1443 624 503 1356 785 2178 837 115 7 481 -4 615 -19z
m1160 -1914 c217 -185 403 -414 544 -667 144 -259 240 -557 282 -874 20 -156
15 -535 -10 -675 -38 -219 -111 -464 -179 -605 -15 -30 -27 -59 -27 -63 0 -16
-112 -212 -173 -302 -176 -263 -413 -497 -687 -678 -130 -86 -390 -214 -530
-261 -638 -214 -1290 -171 -1883 125 -146 73 -220 119 -367 228 -133 98 -299
256 -411 390 l-78 94 737 425 c405 234 890 514 1077 621 l339 196 373 645
c205 355 432 749 504 875 253 442 361 625 368 625 3 0 58 -44 121 -99z"/>
<path d="M9159 5693 c0 -2 0 -128 -1 -280 l0 -278 821 -3 821 -2 0 280 0 280
-820 2 c-451 2 -820 2 -821 1z"/>
</g>
</svg>
