<svg xmlns="http://www.w3.org/2000/svg" viewBox="0 0 144 792"><defs><style>.cls-1{fill:#FEAA0A;}.cls-2{fill:none;}</style></defs><g id="Layer_2" data-name="Layer 2"><g id="Layer_1-2" data-name="Layer 1"><path class="cls-1" d="M88.54,364l-2.4-53A27,27,0,0,0,84,263.81l-2.33-51.36a17.51,17.51,0,0,0,3.5-25.2L90,180l18-9-18-9L72,27,54,162l-18,9,18,9,4.38,6.56a17.52,17.52,0,0,0,3.93,26.56L60,263.81A27,27,0,0,0,57.86,311l-2.43,53.5A36,36,0,1,0,88.54,364Zm-30.2-165.8a13.14,13.14,0,1,1,4.21,9.64h0A13.06,13.06,0,0,1,58.34,198.19ZM51.75,288a20.25,20.25,0,1,1,6.48,14.85A20.17,20.17,0,0,1,51.75,288ZM72.48,423.21a27,27,0,1,1,27-27A27,27,0,0,1,72.48,423.21Z"/><rect class="cls-2" width="144" height="792"/></g></g></svg>