<svg xmlns="http://www.w3.org/2000/svg" viewBox="0 0 144 792"><defs><style>.cls-1{fill:#83181b;}.cls-2{fill:none;}</style></defs><g id="Layer_2" data-name="Layer 2"><g id="Layer_1-2" data-name="Layer 1"><path class="cls-1" d="M88.21,363.7l-5.9-106.08a18.2,18.2,0,0,0-2.12-31L81,225l18.77-9.49L81,189,72,0,63,189,45,216l18,9,.71,1.47a18.2,18.2,0,0,0-2,31.48L55.8,363.64a36,36,0,1,0,32.41.06ZM58.11,242.8a13.65,13.65,0,0,1,7.58-12.23,13.6,13.6,0,0,1,12.51.19,13.65,13.65,0,1,1-20.09,12Zm13.83,180a27,27,0,1,1,27-27A27,27,0,0,1,71.94,422.82Z"/><rect class="cls-2" width="144" height="792"/></g></g></svg>